<mxfile host="app.diagrams.net" modified="2020-12-08T03:10:11.788Z" agent="5.0 (Windows NT 10.0; Win64; x64) AppleWebKit/537.36 (KHTML, like Gecko) Chrome/87.0.4280.88 Safari/537.36" etag="NCyjTF0VBSCQEQHseVd-" version="13.10.9" type="github">
  <diagram id="EDNP4TRclErGJKcpoNrt" name="Page-1">
    <mxGraphModel dx="1102" dy="526" grid="1" gridSize="10" guides="1" tooltips="1" connect="1" arrows="1" fold="1" page="1" pageScale="1" pageWidth="827" pageHeight="1169" math="0" shadow="0">
      <root>
        <mxCell id="0" />
        <mxCell id="1" parent="0" />
        <mxCell id="N1yeIKR3_3EKIIdeNCLN-16" value="" style="rounded=1;whiteSpace=wrap;html=1;fillColor=none;dashed=1;fontSize=16;" parent="1" vertex="1">
          <mxGeometry x="160" y="160" width="440" height="190" as="geometry" />
        </mxCell>
        <mxCell id="N1yeIKR3_3EKIIdeNCLN-11" value="" style="rounded=1;whiteSpace=wrap;html=1;fillColor=none;dashed=1;fontSize=16;arcSize=6;" parent="1" vertex="1">
          <mxGeometry x="350" y="200" width="240" height="130" as="geometry" />
        </mxCell>
        <mxCell id="2uqn8FmNdWkvi-zHf6Ng-1" value="生成器" style="rounded=0;whiteSpace=wrap;html=1;fillColor=none;fontSize=16;" parent="1" vertex="1">
          <mxGeometry x="300" y="370" width="70" height="30" as="geometry" />
        </mxCell>
        <mxCell id="2uqn8FmNdWkvi-zHf6Ng-3" value="粉尘图像" style="rounded=0;whiteSpace=wrap;html=1;fillColor=none;fontSize=16;" parent="1" vertex="1">
          <mxGeometry x="60" y="180" width="90" height="40" as="geometry" />
        </mxCell>
        <mxCell id="2uqn8FmNdWkvi-zHf6Ng-4" value="真实深度图" style="rounded=0;whiteSpace=wrap;html=1;fillColor=none;fontSize=16;" parent="1" vertex="1">
          <mxGeometry x="60" y="240" width="90" height="40" as="geometry" />
        </mxCell>
        <mxCell id="2uqn8FmNdWkvi-zHf6Ng-7" value="传输率图" style="rounded=0;whiteSpace=wrap;html=1;fillColor=none;fontSize=16;" parent="1" vertex="1">
          <mxGeometry x="180" y="210" width="90" height="40" as="geometry" />
        </mxCell>
        <mxCell id="2uqn8FmNdWkvi-zHf6Ng-8" value="" style="endArrow=none;html=1;exitX=1;exitY=0.5;exitDx=0;exitDy=0;fontSize=16;" parent="1" source="2uqn8FmNdWkvi-zHf6Ng-7" target="2uqn8FmNdWkvi-zHf6Ng-9" edge="1">
          <mxGeometry width="50" height="50" relative="1" as="geometry">
            <mxPoint x="390" y="330" as="sourcePoint" />
            <mxPoint x="440" y="280" as="targetPoint" />
          </mxGeometry>
        </mxCell>
        <mxCell id="2uqn8FmNdWkvi-zHf6Ng-9" value="稀疏深度图" style="rounded=0;whiteSpace=wrap;html=1;fillColor=none;fontSize=16;" parent="1" vertex="1">
          <mxGeometry x="360" y="210" width="90" height="40" as="geometry" />
        </mxCell>
        <mxCell id="6g4lXZgoCx9daB6ukYR2-5" value="" style="endArrow=classic;html=1;exitX=1;exitY=0.5;exitDx=0;exitDy=0;entryX=0;entryY=0.25;entryDx=0;entryDy=0;fontSize=16;" parent="1" source="2uqn8FmNdWkvi-zHf6Ng-3" target="2uqn8FmNdWkvi-zHf6Ng-7" edge="1">
          <mxGeometry width="50" height="50" relative="1" as="geometry">
            <mxPoint x="250" y="310" as="sourcePoint" />
            <mxPoint x="300" y="260" as="targetPoint" />
          </mxGeometry>
        </mxCell>
        <mxCell id="6g4lXZgoCx9daB6ukYR2-7" value="" style="endArrow=classic;html=1;exitX=1;exitY=0.5;exitDx=0;exitDy=0;entryX=0;entryY=0.75;entryDx=0;entryDy=0;fontSize=16;" parent="1" source="2uqn8FmNdWkvi-zHf6Ng-4" target="2uqn8FmNdWkvi-zHf6Ng-7" edge="1">
          <mxGeometry width="50" height="50" relative="1" as="geometry">
            <mxPoint x="390" y="240" as="sourcePoint" />
            <mxPoint x="440" y="190" as="targetPoint" />
          </mxGeometry>
        </mxCell>
        <mxCell id="6g4lXZgoCx9daB6ukYR2-8" value="滤波器处理" style="text;html=1;align=center;verticalAlign=middle;resizable=0;points=[];autosize=1;fontSize=16;" parent="1" vertex="1">
          <mxGeometry x="265" y="210" width="100" height="20" as="geometry" />
        </mxCell>
        <mxCell id="2uqn8FmNdWkvi-zHf6Ng-10" value="真实深度图" style="rounded=0;whiteSpace=wrap;html=1;fillColor=none;fontSize=16;" parent="1" vertex="1">
          <mxGeometry x="360" y="280" width="90" height="40" as="geometry" />
        </mxCell>
        <mxCell id="N1yeIKR3_3EKIIdeNCLN-1" value="" style="endArrow=classic;html=1;exitX=1;exitY=0.5;exitDx=0;exitDy=0;entryX=0;entryY=0.5;entryDx=0;entryDy=0;fontSize=16;" parent="1" source="2uqn8FmNdWkvi-zHf6Ng-9" target="N1yeIKR3_3EKIIdeNCLN-3" edge="1">
          <mxGeometry width="50" height="50" relative="1" as="geometry">
            <mxPoint x="390" y="330" as="sourcePoint" />
            <mxPoint x="490" y="230" as="targetPoint" />
          </mxGeometry>
        </mxCell>
        <mxCell id="N1yeIKR3_3EKIIdeNCLN-3" value="稠密图" style="rounded=0;whiteSpace=wrap;html=1;fillColor=none;fontSize=16;" parent="1" vertex="1">
          <mxGeometry x="490" y="241.88" width="90" height="40" as="geometry" />
        </mxCell>
        <mxCell id="N1yeIKR3_3EKIIdeNCLN-6" value="d=αlnt" style="text;html=1;align=center;verticalAlign=middle;resizable=0;points=[];autosize=1;fontSize=16;" parent="1" vertex="1">
          <mxGeometry x="285" y="230" width="60" height="20" as="geometry" />
        </mxCell>
        <mxCell id="N1yeIKR3_3EKIIdeNCLN-7" value="稀疏到稠密重建" style="text;html=1;align=center;verticalAlign=middle;resizable=0;points=[];autosize=1;fontSize=16;" parent="1" vertex="1">
          <mxGeometry x="400" y="180" width="130" height="20" as="geometry" />
        </mxCell>
        <mxCell id="N1yeIKR3_3EKIIdeNCLN-8" value="" style="endArrow=classic;html=1;exitX=1;exitY=0.5;exitDx=0;exitDy=0;entryX=0;entryY=0.75;entryDx=0;entryDy=0;fontSize=16;" parent="1" source="2uqn8FmNdWkvi-zHf6Ng-10" target="N1yeIKR3_3EKIIdeNCLN-3" edge="1">
          <mxGeometry width="50" height="50" relative="1" as="geometry">
            <mxPoint x="390" y="340" as="sourcePoint" />
            <mxPoint x="440" y="290" as="targetPoint" />
          </mxGeometry>
        </mxCell>
        <mxCell id="N1yeIKR3_3EKIIdeNCLN-12" value="真实深度图" style="rounded=0;whiteSpace=wrap;html=1;fillColor=none;fontSize=16;" parent="1" vertex="1">
          <mxGeometry x="490" y="390" width="90" height="40" as="geometry" />
        </mxCell>
        <mxCell id="N1yeIKR3_3EKIIdeNCLN-13" value="" style="endArrow=classic;html=1;exitX=1;exitY=0.5;exitDx=0;exitDy=0;entryX=0;entryY=0.25;entryDx=0;entryDy=0;fontSize=16;" parent="1" source="N1yeIKR3_3EKIIdeNCLN-3" target="N1yeIKR3_3EKIIdeNCLN-14" edge="1">
          <mxGeometry width="50" height="50" relative="1" as="geometry">
            <mxPoint x="390" y="340" as="sourcePoint" />
            <mxPoint x="630" y="340" as="targetPoint" />
          </mxGeometry>
        </mxCell>
        <mxCell id="N1yeIKR3_3EKIIdeNCLN-14" value="判别器" style="rounded=0;whiteSpace=wrap;html=1;fillColor=none;fontSize=16;" parent="1" vertex="1">
          <mxGeometry x="630" y="320" width="90" height="40" as="geometry" />
        </mxCell>
        <mxCell id="N1yeIKR3_3EKIIdeNCLN-15" value="" style="endArrow=classic;html=1;exitX=1;exitY=0.5;exitDx=0;exitDy=0;entryX=0;entryY=0.75;entryDx=0;entryDy=0;fontSize=16;" parent="1" source="N1yeIKR3_3EKIIdeNCLN-12" target="N1yeIKR3_3EKIIdeNCLN-14" edge="1">
          <mxGeometry width="50" height="50" relative="1" as="geometry">
            <mxPoint x="610" y="275" as="sourcePoint" />
            <mxPoint x="690" y="300" as="targetPoint" />
          </mxGeometry>
        </mxCell>
        <mxCell id="N1yeIKR3_3EKIIdeNCLN-19" value="" style="edgeStyle=segmentEdgeStyle;endArrow=classic;html=1;exitX=0.5;exitY=0;exitDx=0;exitDy=0;entryX=0.5;entryY=0;entryDx=0;entryDy=0;fontSize=16;" parent="1" source="N1yeIKR3_3EKIIdeNCLN-14" target="N1yeIKR3_3EKIIdeNCLN-16" edge="1">
          <mxGeometry width="50" height="50" relative="1" as="geometry">
            <mxPoint x="390" y="340" as="sourcePoint" />
            <mxPoint x="440" y="290" as="targetPoint" />
            <Array as="points">
              <mxPoint x="665" y="110" />
              <mxPoint x="340" y="110" />
            </Array>
          </mxGeometry>
        </mxCell>
      </root>
    </mxGraphModel>
  </diagram>
</mxfile>
